<svg aria-hidden="true" style="position: absolute; width: 0; height: 0; overflow: hidden;" version="1.1" xmlns="http://www.w3.org/2000/svg" xmlns:xlink="http://www.w3.org/1999/xlink">
<defs>
<symbol id="icon-menu_40px" viewBox="0 0 32 32">
<path d="M6.4 11.733v-2.133h19.2v2.133h-19.2zM6.4 17.067h19.2v-2.133h-19.2v2.133zM6.4 22.4h19.2v-2.133h-19.2v2.133z"></path>
</symbol>
<symbol id="icon-Frame-12" viewBox="0 0 32 32">
<path fill="#fff" style="fill: var(--color1, #fff)" d="M32 5.824c-1.176 0.535-2.442 0.898-3.77 1.059 1.356-0.832 2.397-2.151 2.887-3.723-1.27 0.77-2.673 1.331-4.172 1.631-1.195-1.308-2.902-2.124-4.791-2.124-3.623 0-6.563 3.014-6.563 6.732 0 0.528 0.056 1.040 0.169 1.533-5.456-0.281-10.293-2.958-13.533-7.036-0.565 0.998-0.888 2.155-0.888 3.388 0 2.334 1.159 4.395 2.921 5.603-1.074-0.033-2.089-0.339-2.975-0.84v0.083c0 3.263 2.263 5.984 5.269 6.601-0.55 0.158-1.131 0.237-1.73 0.237-0.423 0-0.836-0.041-1.236-0.119 0.836 2.674 3.259 4.621 6.133 4.673-2.246 1.807-5.079 2.883-8.154 2.883-0.53 0-1.054-0.031-1.566-0.092 2.906 1.907 6.358 3.022 10.064 3.022 12.077 0 18.679-10.256 18.679-19.153 0-0.293-0.006-0.586-0.017-0.873 1.283-0.95 2.397-2.134 3.274-3.484z"></path>
</symbol>
<symbol id="icon-Frame-11" viewBox="0 0 32 32">
<path fill="#fff" style="fill: var(--color1, #fff)" d="M16.001 0c-8.836 0-16.001 7.163-16.001 16.001 0 6.55 3.94 12.179 9.579 14.654-0.045-1.116-0.008-2.459 0.277-3.675 0.309-1.298 2.058-8.717 2.058-8.717s-0.51-1.022-0.51-2.533c0-2.371 1.375-4.141 3.086-4.141 1.454 0 2.158 1.093 2.158 2.403 0 1.462-0.933 3.65-1.413 5.677-0.401 1.699 0.85 3.082 2.525 3.082 3.031 0 5.073-3.893 5.073-8.507 0-3.505-2.361-6.13-6.657-6.13-4.852 0-7.876 3.618-7.876 7.66 0 1.396 0.41 2.378 1.054 3.138 0.297 0.352 0.337 0.491 0.229 0.894-0.075 0.292-0.252 1.003-0.325 1.283-0.107 0.404-0.435 0.551-0.8 0.401-2.237-0.913-3.278-3.361-3.278-6.113 0-4.544 3.833-9.997 11.434-9.997 6.11 0 10.13 4.424 10.13 9.167 0 6.277-3.489 10.966-8.635 10.966-1.725 0-3.351-0.933-3.908-1.993 0 0-0.93 3.686-1.125 4.397-0.339 1.232-1.003 2.467-1.611 3.426 1.439 0.425 2.96 0.657 4.535 0.657 8.836 0 15.999-7.163 15.999-15.999 0-8.838-7.163-16.001-15.999-16.001z"></path>
</symbol>
<symbol id="icon-Frame-10" viewBox="0 0 32 32">
<path fill="#fff" style="fill: var(--color1, #fff)" d="M3.767 8.311h-0.045c-2.258 0-3.722-1.511-3.722-3.426 0-1.952 1.507-3.431 3.81-3.431 2.301 0 3.716 1.475 3.761 3.426 0 1.915-1.46 3.431-3.804 3.431zM32 30.545h-7.072v-10.227c0-2.677-1.106-4.504-3.539-4.504-1.861 0-2.895 1.233-3.377 2.422-0.159 0.376-0.156 0.881-0.153 1.402v0c0 0.071 0.001 0.142 0.001 0.213v10.694h-7.007c0 0 0.090-18.116 0-19.762h7.007v3.101c0.414-1.356 2.653-3.291 6.226-3.291 4.433 0 7.915 2.843 7.915 8.964v10.988zM7.044 10.783h-6.237v19.762h6.237v-19.762z"></path>
</symbol>
<symbol id="icon-Vector-2" viewBox="0 0 32 32">
<path fill="#fff" style="fill: var(--color1, #fff)" d="M16 0c-4.345 0-4.89 0.018-6.597 0.096-1.703 0.078-2.866 0.348-3.884 0.744-1.052 0.409-1.944 0.956-2.834 1.845s-1.437 1.782-1.845 2.834c-0.396 1.018-0.666 2.181-0.744 3.884-0.078 1.707-0.096 2.251-0.096 6.597s0.018 4.89 0.096 6.597c0.078 1.703 0.348 2.866 0.744 3.884 0.409 1.052 0.956 1.944 1.845 2.834s1.782 1.437 2.834 1.846c1.018 0.395 2.181 0.666 3.884 0.744 1.707 0.078 2.251 0.096 6.597 0.096s4.89-0.018 6.597-0.096c1.703-0.078 2.866-0.348 3.884-0.744 1.052-0.409 1.944-0.956 2.834-1.846s1.437-1.782 1.846-2.834c0.395-1.018 0.666-2.181 0.744-3.884 0.078-1.707 0.096-2.252 0.096-6.597s-0.018-4.89-0.096-6.597c-0.078-1.703-0.348-2.866-0.744-3.884-0.409-1.052-0.956-1.944-1.846-2.834s-1.782-1.437-2.834-1.845c-1.018-0.396-2.181-0.666-3.884-0.744-1.707-0.078-2.252-0.096-6.597-0.096zM16 2.883c4.272 0 4.778 0.016 6.465 0.093 1.56 0.071 2.407 0.332 2.971 0.551 0.747 0.29 1.28 0.637 1.84 1.197s0.907 1.093 1.197 1.84c0.219 0.564 0.48 1.411 0.551 2.971 0.077 1.687 0.093 2.193 0.093 6.465s-0.016 4.778-0.093 6.465c-0.071 1.56-0.332 2.407-0.551 2.971-0.29 0.747-0.637 1.28-1.197 1.84s-1.093 0.907-1.84 1.197c-0.564 0.219-1.411 0.48-2.971 0.551-1.687 0.077-2.193 0.093-6.465 0.093s-4.778-0.016-6.465-0.093c-1.56-0.071-2.407-0.332-2.971-0.551-0.747-0.29-1.28-0.637-1.84-1.197s-0.907-1.093-1.197-1.84c-0.219-0.564-0.48-1.411-0.551-2.971-0.077-1.687-0.093-2.193-0.093-6.465s0.016-4.778 0.093-6.465c0.071-1.56 0.332-2.407 0.551-2.971 0.29-0.747 0.637-1.28 1.197-1.84s1.093-0.907 1.84-1.197c0.564-0.219 1.411-0.48 2.971-0.551 1.687-0.077 2.193-0.093 6.465-0.093zM7.784 16c0-4.538 3.679-8.216 8.216-8.216s8.216 3.678 8.216 8.216c0 4.538-3.678 8.216-8.216 8.216s-8.216-3.678-8.216-8.216zM16 21.333c-2.945 0-5.333-2.388-5.333-5.333s2.388-5.333 5.333-5.333c2.945 0 5.333 2.388 5.333 5.333s-2.388 5.333-5.333 5.333zM24.541 9.379c1.060 0 1.92-0.86 1.92-1.92s-0.86-1.92-1.92-1.92c-1.060 0-1.92 0.86-1.92 1.92s0.86 1.92 1.92 1.92z"></path>
</symbol>
<symbol id="icon-Frame-9" viewBox="0 0 32 32">
<path fill="#fff" style="fill: var(--color1, #fff)" d="M17.092 32h-15.326c-0.976 0-1.766-0.791-1.766-1.766v-28.468c0-0.976 0.791-1.766 1.766-1.766h28.468c0.975 0 1.766 0.791 1.766 1.766v28.468c0 0.975-0.791 1.766-1.766 1.766h-8.154v-12.392h4.159l0.623-4.829h-4.782v-3.083c0-1.398 0.388-2.351 2.393-2.351l2.557-0.001v-4.319c-0.442-0.059-1.96-0.19-3.727-0.19-3.687 0-6.211 2.251-6.211 6.384v3.562h-4.17v4.829h4.17v12.392z"></path>
</symbol>
<symbol id="icon-Frame-8" viewBox="0 0 32 32">
<path stroke-linejoin="round" stroke-linecap="round" stroke-miterlimit="4" stroke-width="1.1111" d="M4.035 3.68h-1.78c-0.955 0-1.728 0.887-1.728 1.981v0.003c0 3.949 1.687 7.591 4.309 9.968"></path>
<path stroke-linejoin="round" stroke-linecap="round" stroke-miterlimit="4" stroke-width="1.1111" d="M27.895 3.68h1.781c0.954 0 1.727 0.887 1.727 1.981v0.003c0 3.949-1.687 7.591-4.309 9.968"></path>
<path stroke-linejoin="round" stroke-linecap="round" stroke-miterlimit="4" stroke-width="1.1111" d="M8.26 30.185h15.411"></path>
<path stroke-linejoin="round" stroke-linecap="round" stroke-miterlimit="4" stroke-width="1.1111" d="M15.965 21.297v8.889"></path>
</symbol>
<symbol id="icon-Frame-7" viewBox="0 0 32 32">
<path fill="none" stroke="#231f20" style="stroke: var(--color2, #231f20)" stroke-linejoin="round" stroke-linecap="round" stroke-miterlimit="4" stroke-width="1.1111" d="M1.228 22.308v-21.538h22.274c0.625 0 1.176 0.589 1.352 1.446l1.797 10.794 3.326 1.734c0.447 0.354 0.725 1.028 0.725 1.758v5.806"></path>
<path fill="none" stroke="#231f20" style="stroke: var(--color2, #231f20)" stroke-linejoin="round" stroke-linecap="round" stroke-miterlimit="4" stroke-width="1.1111" d="M15.965 22.308v-17.435"></path>
<path fill="none" stroke="#231f20" style="stroke: var(--color2, #231f20)" stroke-linejoin="round" stroke-linecap="round" stroke-miterlimit="4" stroke-width="1.1111" d="M27.594 26.41h3.809"></path>
<path fill="none" stroke="#231f20" style="stroke: var(--color2, #231f20)" stroke-linejoin="round" stroke-linecap="round" stroke-miterlimit="4" stroke-width="1.1111" d="M11.352 26.41h9.226"></path>
<path fill="none" stroke="#231f20" style="stroke: var(--color2, #231f20)" stroke-linejoin="round" stroke-linecap="round" stroke-miterlimit="4" stroke-width="1.1111" d="M0.526 26.41h3.808"></path>
<path fill="none" stroke="#231f20" style="stroke: var(--color2, #231f20)" stroke-linejoin="round" stroke-linecap="round" stroke-miterlimit="4" stroke-width="1.1111" d="M11.353 26.41c0 2.832-1.571 5.128-3.508 5.128s-3.509-2.295-3.509-5.128c0-2.832 1.572-5.128 3.509-5.128s3.508 2.295 3.508 5.128z"></path>
<path d="M9.16 26.41c0 1.061-0.589 1.923-1.316 1.923s-1.316-0.862-1.316-1.923c0-1.061 0.589-1.923 1.316-1.923s1.316 0.861 1.316 1.923z"></path>
<path fill="none" stroke="#231f20" style="stroke: var(--color2, #231f20)" stroke-linejoin="round" stroke-linecap="round" stroke-miterlimit="4" stroke-width="1.1111" d="M27.595 26.41c0 2.832-1.571 5.128-3.508 5.128-1.938 0-3.509-2.295-3.509-5.128s1.572-5.128 3.509-5.128c1.937 0 3.508 2.295 3.508 5.128z"></path>
<path d="M25.402 26.41c0 1.061-0.59 1.923-1.316 1.923s-1.316-0.862-1.316-1.923c0-1.061 0.589-1.923 1.316-1.923s1.316 0.861 1.316 1.923z"></path>
<path fill="none" stroke="#231f20" style="stroke: var(--color2, #231f20)" stroke-linejoin="round" stroke-linecap="round" stroke-miterlimit="4" stroke-width="1.1111" d="M26.651 13.008h-6.812v-8.138h5.457"></path>
</symbol>
<symbol id="icon-Frame-6" viewBox="0 0 32 32">
<path stroke-linejoin="round" stroke-linecap="round" stroke-miterlimit="4" stroke-width="1.1111" d="M20.6 5.162c0 2.56-2.075 4.635-4.635 4.635s-4.636-2.075-4.636-4.635c0-2.56 2.076-4.635 4.636-4.635s4.635 2.075 4.635 4.635z"></path>
<path stroke-linejoin="round" stroke-linecap="round" stroke-miterlimit="4" stroke-width="1.1111" d="M0.527 31.177h30.877"></path>
<path stroke-linejoin="round" stroke-linecap="round" stroke-miterlimit="4" stroke-width="1.1111" d="M23.436 28.37v-5.836c0-0.853-0.692-1.544-1.544-1.544h-11.854c-0.853 0-1.543 0.691-1.543 1.544v5.836"></path>
<path stroke-linejoin="round" stroke-linecap="round" stroke-miterlimit="4" stroke-width="1.1111" d="M27.664 28.338c0.851-0.983 1.085-2.357 0.607-3.566l-2.707-6.849c-0.932-2.356-3.208-3.904-5.743-3.904h-7.712c-2.535 0-4.812 1.548-5.743 3.904l-2.708 6.849c-0.478 1.209-0.243 2.583 0.608 3.566"></path>
</symbol>
<symbol id="icon-Frame-5" viewBox="0 0 32 32">
<path stroke-linejoin="round" stroke-linecap="round" stroke-miterlimit="4" stroke-width="1.1111" d="M28.805 11.703c0 6.173-5.941 11.177-13.273 11.177-7.329 0-13.271-5.004-13.271-11.177s5.942-11.177 13.271-11.177c7.331 0 13.273 5.004 13.273 11.177z"></path>
<path stroke-linejoin="round" stroke-linecap="round" stroke-miterlimit="4" stroke-width="1.1111" d="M12.199 25.807l-3.382 5.597-2.026-5.157-6.166 1.694 3.381-5.595"></path>
<path stroke-linejoin="round" stroke-linecap="round" stroke-miterlimit="4" stroke-width="1.1111" d="M18.866 25.807l3.383 5.597 2.026-5.157 6.166 1.694-3.381-5.595"></path>
</symbol>
<symbol id="icon-Group-1" viewBox="0 0 32 32">
<path fill="none" stroke="#2468ff" style="stroke: var(--color3, #2468ff)" stroke-linejoin="miter" stroke-linecap="butt" stroke-miterlimit="4" stroke-width="0.8101" d="M21.463 0.39h-10.927c-5.604 0-10.146 4.543-10.146 10.146v10.927c0 5.604 4.543 10.146 10.146 10.146h10.927c5.604 0 10.146-4.543 10.146-10.146v-10.927c0-5.604-4.543-10.146-10.146-10.146z"></path>
<path fill="none" stroke="#2468ff" style="stroke: var(--color3, #2468ff)" stroke-linejoin="round" stroke-linecap="round" stroke-miterlimit="4" stroke-width="0.8101" d="M8.973 14.46v-1.932c0-2.178 1.631-3.943 3.643-3.943h6.671c2.012 0 3.643 1.765 3.643 3.943v1.932"></path>
<path fill="none" stroke="#2468ff" style="stroke: var(--color3, #2468ff)" stroke-linejoin="round" stroke-linecap="round" stroke-miterlimit="4" stroke-width="0.8101" d="M8.973 16.138v3.611c0 2.177 1.631 3.943 3.643 3.943h6.671c2.012 0 3.643-1.765 3.643-3.943v-3.611"></path>
<path fill="none" stroke="#2468ff" style="stroke: var(--color3, #2468ff)" stroke-linejoin="round" stroke-linecap="round" stroke-miterlimit="4" stroke-width="0.8101" d="M10.738 12.55l-1.765 1.91-1.765-1.91"></path>
<path fill="none" stroke="#2468ff" style="stroke: var(--color3, #2468ff)" stroke-linejoin="round" stroke-linecap="round" stroke-miterlimit="4" stroke-width="0.8101" d="M21.165 18.048l1.765-1.91 1.765 1.91"></path>
</symbol>
<symbol id="icon-Group" viewBox="0 0 32 32">
<path fill="none" stroke="#2468ff" style="stroke: var(--color3, #2468ff)" stroke-linejoin="round" stroke-linecap="round" stroke-miterlimit="4" stroke-width="0.8101" d="M12.479 15.473l2.328 2.322 4.815-4.803"></path>
<path fill="none" stroke="#2468ff" style="stroke: var(--color3, #2468ff)" stroke-linejoin="round" stroke-linecap="round" stroke-miterlimit="4" stroke-width="0.8101" d="M16.541 26.712c1.902-1.050 8.687-5.634 8.953-17.719 0.009-0.437-0.265-0.844-0.679-0.987-2.573-0.887-5.566-1.4-8.767-1.4h0.003c-3.2 0-6.193 0.513-8.767 1.4-0.415 0.143-0.689 0.55-0.679 0.987 0.267 12.086 7.052 16.67 8.953 17.719 0.15 0.084 0.319 0.128 0.491 0.128s0.341-0.044 0.491-0.128l-0 0z"></path>
<path fill="none" stroke="#2468ff" style="stroke: var(--color3, #2468ff)" stroke-linejoin="miter" stroke-linecap="butt" stroke-miterlimit="4" stroke-width="0.8101" d="M21.463 0.39h-10.927c-5.604 0-10.146 4.543-10.146 10.146v10.927c0 5.604 4.543 10.146 10.146 10.146h10.927c5.604 0 10.146-4.543 10.146-10.146v-10.927c0-5.604-4.543-10.146-10.146-10.146z"></path>
</symbol>
<symbol id="icon-Frame-4" viewBox="0 0 32 32">
<path fill="none" stroke="#2468ff" style="stroke: var(--color3, #2468ff)" stroke-linejoin="round" stroke-linecap="round" stroke-miterlimit="4" stroke-width="0.8101" d="M23.668 19.063c0-1.86-1.506-3.369-3.363-3.369h-3.671l-0.509-6.595c-0.024-0.296-0.162-0.572-0.385-0.769s-0.512-0.301-0.81-0.289-0.578 0.137-0.785 0.351c-0.207 0.214-0.323 0.499-0.324 0.796l0.010 13.244-2.341-2.050c-0.44-0.386-1.003-0.604-1.588-0.615s-1.156 0.184-1.611 0.553c0 0 4.103 5.015 7.038 6.406"></path>
<path fill="none" stroke="#2468ff" style="stroke: var(--color3, #2468ff)" stroke-linejoin="round" stroke-linecap="round" stroke-miterlimit="4" stroke-width="0.8101" d="M11.106 11.369v-3.597c-0-0.586 0.232-1.149 0.646-1.564s0.976-0.648 1.563-0.649h3.314c0.29 0 0.578 0.058 0.846 0.169s0.512 0.274 0.717 0.48c0.205 0.205 0.368 0.449 0.479 0.718s0.168 0.556 0.168 0.846v3.597"></path>
<path fill="none" stroke="#2468ff" style="stroke: var(--color3, #2468ff)" stroke-linejoin="miter" stroke-linecap="butt" stroke-miterlimit="4" stroke-width="0.8101" d="M21.463 0.39h-10.927c-5.604 0-10.146 4.543-10.146 10.146v10.927c0 5.604 4.543 10.146 10.146 10.146h10.927c5.604 0 10.146-4.543 10.146-10.146v-10.927c0-5.604-4.543-10.146-10.146-10.146z"></path>
</symbol>
<symbol id="icon-Frame-3" viewBox="0 0 32 32">
<path fill="none" stroke="#fefefe" style="stroke: var(--color4, #fefefe)" stroke-linejoin="miter" stroke-linecap="butt" stroke-miterlimit="4" stroke-width="0.6076" d="M10.537 0.39h10.927c5.604 0 10.146 4.543 10.146 10.146v10.927c0 5.603-4.543 10.146-10.146 10.146h-10.927c-5.604 0-10.146-4.543-10.146-10.146v-10.927c0-5.604 4.543-10.146 10.146-10.146z"></path>
<path fill="none" stroke="#fefefe" style="stroke: var(--color4, #fefefe)" stroke-linejoin="miter" stroke-linecap="butt" stroke-miterlimit="4" stroke-width="0.6076" d="M18.721 10.267c-0.804-0.475-1.74-0.748-2.741-0.748-0.994 0-1.925 0.269-2.725 0.738"></path>
<path fill="none" stroke="#fefefe" style="stroke: var(--color4, #fefefe)" stroke-linejoin="miter" stroke-linecap="butt" stroke-miterlimit="4" stroke-width="0.6076" d="M20.725 8.408c-1.333-0.977-2.978-1.553-4.756-1.553-1.762 0-3.392 0.565-4.718 1.525"></path>
<path fill="none" stroke="#fefefe" style="stroke: var(--color4, #fefefe)" stroke-linejoin="miter" stroke-linecap="butt" stroke-miterlimit="4" stroke-width="0.6076" d="M18.035 24.754h-4.071c-2.115 0-3.829-1.714-3.829-3.829v-4.071c0-2.115 1.714-3.829 3.829-3.829h4.071c2.115 0 3.829 1.715 3.829 3.829v4.071c0 2.115-1.714 3.829-3.829 3.829z"></path>
<path fill="none" stroke="#fefefe" style="stroke: var(--color4, #fefefe)" stroke-linejoin="miter" stroke-linecap="butt" stroke-miterlimit="4" stroke-width="0.6076" d="M14.287 18.89c0-0.946 0.767-1.714 1.713-1.714s1.713 0.767 1.713 1.714c0 0.946-0.767 1.714-1.713 1.714s-1.713-0.767-1.713-1.714z"></path>
</symbol>
<symbol id="icon-Frame-2" viewBox="0 0 32 32">
<path fill="none" stroke="#fff" style="stroke: var(--color1, #fff)" stroke-linejoin="miter" stroke-linecap="butt" stroke-miterlimit="4" stroke-width="0.4051" d="M21.463 0.643h-10.927c-5.604 0-10.146 4.488-10.146 10.024v10.795c0 5.536 4.543 10.024 10.146 10.024h10.927c5.604 0 10.146-4.488 10.146-10.024v-10.795c0-5.536-4.543-10.024-10.146-10.024z"></path>
<path fill="none" stroke="#fff" style="stroke: var(--color1, #fff)" stroke-linejoin="round" stroke-linecap="round" stroke-miterlimit="4" stroke-width="0.638" d="M22.104 22.095c-3.36 3.32-8.809 3.32-12.169 0s-3.361-8.702 0-12.022c3.36-3.32 8.809-3.32 12.169 0s3.36 8.703 0 12.022z"></path>
<path fill="none" stroke="#fff" style="stroke: var(--color1, #fff)" stroke-linejoin="round" stroke-linecap="round" stroke-miterlimit="4" stroke-width="0.638" d="M18.627 20.205c-0.342 0.342-0.748 0.614-1.197 0.8s-0.93 0.283-1.416 0.285-0.968-0.092-1.418-0.275c-0.45-0.183-0.858-0.452-1.202-0.792s-0.616-0.744-0.802-1.188c-0.185-0.444-0.28-0.92-0.278-1.401s0.1-0.956 0.288-1.399c0.188-0.443 0.464-0.845 0.81-1.182 0.693-0.675 1.629-1.053 2.602-1.049s1.906 0.387 2.595 1.067c0.689 0.68 1.077 1.602 1.080 2.564s-0.378 1.886-1.062 2.571z"></path>
<path fill="none" stroke="#fff" style="stroke: var(--color1, #fff)" stroke-linejoin="round" stroke-linecap="round" stroke-miterlimit="4" stroke-width="0.638" d="M16.020 16.415v2.429"></path>
<path fill="none" stroke="#fff" style="stroke: var(--color1, #fff)" stroke-linejoin="round" stroke-linecap="round" stroke-miterlimit="4" stroke-width="0.638" d="M16.889 11.621c-0.231 0.224-0.543 0.349-0.867 0.348s-0.635-0.129-0.864-0.356c-0.229-0.226-0.359-0.533-0.36-0.853s0.125-0.628 0.352-0.857c0.231-0.224 0.543-0.349 0.867-0.348s0.635 0.129 0.864 0.356c0.229 0.226 0.359 0.533 0.36 0.853s-0.125 0.628-0.352 0.857v0z"></path>
</symbol>
<symbol id="icon-Frame-1" viewBox="0 0 32 32">
<path fill="none" stroke="#fff" style="stroke: var(--color1, #fff)" stroke-linejoin="miter" stroke-linecap="butt" stroke-miterlimit="4" stroke-width="0.4051" d="M21.463 0.643h-10.927c-5.604 0-10.146 4.488-10.146 10.024v10.795c0 5.536 4.543 10.024 10.146 10.024h10.927c5.604 0 10.146-4.488 10.146-10.024v-10.795c0-5.536-4.543-10.024-10.146-10.024z"></path>
<path fill="none" stroke="#fff" style="stroke: var(--color1, #fff)" stroke-linejoin="round" stroke-linecap="round" stroke-miterlimit="4" stroke-width="0.638" d="M12.594 21.257h6.492"></path>
<path fill="none" stroke="#fff" style="stroke: var(--color1, #fff)" stroke-linejoin="round" stroke-linecap="round" stroke-miterlimit="4" stroke-width="0.638" d="M13.522 22.876h4.638"></path>
<path fill="none" stroke="#fff" style="stroke: var(--color1, #fff)" stroke-linejoin="round" stroke-linecap="round" stroke-miterlimit="4" stroke-width="0.638" d="M17.232 24.495h-2.782"></path>
<path fill="none" stroke="#fff" style="stroke: var(--color1, #fff)" stroke-linejoin="round" stroke-linecap="round" stroke-miterlimit="4" stroke-width="0.638" d="M19.060 19.637c0-0.871 0.218-1.729 0.635-2.498l1.373-2.537c0.008-0.015 0.017-0.029 0.024-0.044l0.009-0.017h-0.003c0.287-0.604 0.437-1.262 0.437-1.929 0-2.778-2.549-5.030-5.694-5.030s-5.694 2.252-5.694 5.030c0 0.684 0.157 1.335 0.437 1.929h-0.002l0.009 0.017c0.007 0.015 0.016 0.030 0.025 0.045l1.372 2.536c0.417 0.769 0.635 1.627 0.635 2.499"></path>
</symbol>
<symbol id="icon-Vector-1" viewBox="0 0 107 32">
<path d="M68.062 22.21c-0.778-1.001-5.124-0.479-7.092-0.239-0.584 0-0.67-0.435-0.151-0.827 3.481-2.437 9.167-1.74 9.816-0.914s-0.173 6.527-3.416 9.29c-0.497 0.413-0.973 0.196-0.757-0.348 0.735-1.849 2.357-5.961 1.6-6.962zM61.122 3.848v-2.393c-0.003-0.081 0.010-0.161 0.040-0.237s0.074-0.144 0.131-0.201c0.057-0.057 0.125-0.102 0.2-0.131s0.155-0.043 0.235-0.040h10.551c0.081-0.003 0.161 0.011 0.235 0.040s0.143 0.074 0.2 0.131 0.101 0.126 0.131 0.201c0.029 0.075 0.043 0.156 0.040 0.237v2.045c0 0.348-0.281 0.783-0.8 1.501l-5.492 7.897c2.098-0.123 4.19 0.328 6.054 1.305 0.164 0.090 0.302 0.222 0.401 0.382s0.154 0.343 0.161 0.532v2.545c0 0.348-0.389 0.761-0.778 0.544-1.731-0.9-3.651-1.37-5.6-1.37s-3.869 0.47-5.6 1.37c-0.367 0.196-0.757-0.196-0.757-0.544v-2.35c-0.037-0.571 0.098-1.14 0.389-1.632l6.4-9.246h-5.535c-0.078 0.003-0.157-0.010-0.23-0.038s-0.14-0.071-0.197-0.126c-0.057-0.055-0.101-0.121-0.132-0.193s-0.047-0.151-0.046-0.23zM82.094 3.956c-2.378 0-2.53 3.263-2.53 5.287s0 6.375 2.508 6.375c2.508 0 2.616-3.503 2.616-5.635 0.047-1.467-0.121-2.933-0.497-4.351-0.099-0.49-0.375-0.925-0.774-1.222s-0.894-0.435-1.388-0.388l0.065-0.065zM82.094 0.541c4.778 0 7.373 4.155 7.373 9.399s-2.854 9.116-7.373 9.116c-4.519 0-7.265-4.134-7.265-9.29s2.594-9.225 7.265-9.225zM55.911 18.664c-0.114 0.071-0.245 0.109-0.378 0.109s-0.265-0.038-0.378-0.109c-0.735-0.617-1.363-1.352-1.859-2.176-0.634 0.794-1.447 1.424-2.373 1.836s-1.936 0.596-2.946 0.535c-0.662 0.038-1.324-0.069-1.941-0.313s-1.174-0.62-1.632-1.102c-0.458-0.482-0.807-1.058-1.023-1.689s-0.293-1.301-0.226-1.965c-0.034-1.132 0.277-2.248 0.892-3.197s1.503-1.686 2.546-2.112c1.964-0.653 4.009-1.027 6.076-1.11 0.097-0.946-0.037-1.902-0.389-2.785-0.22-0.269-0.498-0.485-0.812-0.632s-0.658-0.221-1.004-0.216c-0.588-0.042-1.171 0.127-1.647 0.478s-0.811 0.86-0.948 1.436c0 0.37-0.324 0.653-0.605 0.631l-3.092-0.239c-0.077-0.013-0.151-0.042-0.217-0.084s-0.123-0.098-0.167-0.163c-0.044-0.065-0.075-0.138-0.091-0.215s-0.016-0.157 0-0.234c0.713-3.807 4.151-4.96 7.221-4.96 1.761-0.065 3.486 0.506 4.865 1.61 1.557 1.479 1.405 3.459 1.405 5.591v5.069c0.010 1.123 0.452 2.199 1.233 3.002 0.11 0.114 0.171 0.266 0.171 0.424s-0.061 0.311-0.171 0.424l-2.486 2.176-0.022-0.022zM52.668 10.744c0.116 1.187-0.093 2.383-0.606 3.459-0.201 0.414-0.507 0.769-0.886 1.028s-0.819 0.415-1.276 0.451c-1.254 0-1.968-0.957-1.968-2.371 0-2.763 2.465-3.263 4.8-3.263v0.696h-0.065zM13.62 18.664c-0.113 0.071-0.245 0.109-0.378 0.109s-0.265-0.038-0.378-0.109c-0.735-0.617-1.364-1.352-1.859-2.176-0.642 0.785-1.457 1.408-2.38 1.819s-1.93 0.601-2.938 0.552c-0.649 0.027-1.295-0.085-1.898-0.329s-1.146-0.613-1.596-1.084c-0.45-0.471-0.795-1.033-1.013-1.648s-0.303-1.27-0.251-1.921c-0.037-1.133 0.273-2.25 0.888-3.199s1.505-1.686 2.55-2.109c1.964-0.653 4.009-1.027 6.076-1.11 0.098-0.948-0.044-1.906-0.411-2.785-0.21-0.275-0.483-0.496-0.795-0.643s-0.655-0.218-1-0.205c-0.589-0.046-1.174 0.121-1.651 0.473s-0.811 0.863-0.944 1.442c0 0.37-0.324 0.653-0.605 0.631l-3.092-0.326c-0.077-0.013-0.151-0.042-0.217-0.084s-0.123-0.098-0.167-0.163c-0.044-0.065-0.075-0.138-0.091-0.215s-0.016-0.157-0-0.234c0.714-3.807 4.151-4.96 7.221-4.96 1.754-0.068 3.474 0.504 4.843 1.61 1.578 1.479 1.427 3.459 1.427 5.591v5.069c-0.010 1.103 0.382 2.171 1.103 3.002 0.057 0.055 0.102 0.121 0.133 0.194s0.047 0.151 0.047 0.231c0 0.079-0.016 0.158-0.047 0.231s-0.076 0.139-0.133 0.194l-2.486 2.176 0.043-0.022zM10.377 10.744c0.116 1.187-0.093 2.383-0.605 3.459-0.203 0.413-0.509 0.766-0.888 1.026s-0.818 0.416-1.274 0.454c-1.232 0-1.946-0.957-1.946-2.371 0-2.763 2.465-3.263 4.8-3.263v0.696h-0.086zM23.047 9.287c0-1.936 0-4.591 2.162-4.591s1.968 2.72 1.968 4.591v8.833c-0 0.152 0.058 0.298 0.163 0.408s0.248 0.174 0.399 0.18h3.221c0.080 0.003 0.159-0.010 0.234-0.038s0.143-0.070 0.201-0.125c0.058-0.055 0.105-0.12 0.138-0.193s0.051-0.152 0.054-0.232v-8.833c-0.066-1.075 0.037-2.154 0.303-3.198 0.154-0.391 0.418-0.729 0.76-0.972s0.746-0.382 1.164-0.398c0.441-0.062 0.889 0.054 1.246 0.323s0.593 0.669 0.657 1.113c0.076 1.043 0.076 2.090 0 3.133v8.833c0.005 0.154 0.069 0.3 0.177 0.409s0.254 0.173 0.407 0.178h3.222c0.079 0.003 0.159-0.010 0.233-0.038s0.143-0.070 0.201-0.125 0.105-0.12 0.138-0.193c0.033-0.073 0.051-0.152 0.054-0.232v-10.53c0.271-1.784-0.016-3.609-0.822-5.221-0.433-0.578-0.995-1.045-1.642-1.363s-1.358-0.477-2.077-0.465c-0.975-0.028-1.934 0.256-2.738 0.811s-1.413 1.353-1.737 2.279c-0.271-0.899-0.824-1.686-1.576-2.243s-1.663-0.854-2.597-0.846c-0.959-0.041-1.905 0.24-2.688 0.799s-1.359 1.365-1.636 2.29v-2.176c-0.006-0.158-0.072-0.307-0.185-0.417s-0.264-0.171-0.421-0.171h-2.789c-0.078-0.003-0.157 0.010-0.23 0.038s-0.14 0.071-0.197 0.126c-0.057 0.055-0.101 0.121-0.132 0.193s-0.046 0.151-0.046 0.23v16.6c-0.003 0.081 0.011 0.161 0.040 0.237s0.074 0.144 0.131 0.201c0.057 0.057 0.125 0.102 0.2 0.131s0.155 0.043 0.235 0.040h3.308c0.078 0 0.156-0.016 0.229-0.047s0.138-0.076 0.192-0.133c0.055-0.057 0.097-0.124 0.125-0.198s0.041-0.153 0.038-0.231v-8.702l-0.086-0.065zM96.278 18.098c0.003 0.081-0.010 0.161-0.040 0.237s-0.074 0.144-0.131 0.201c-0.057 0.057-0.125 0.102-0.199 0.131s-0.155 0.043-0.235 0.040h-3.222c-0.161 0-0.314-0.064-0.428-0.178s-0.177-0.269-0.177-0.431v-16.6c0.006-0.158 0.072-0.307 0.185-0.417s0.264-0.171 0.421-0.171h2.984c0.138-0.009 0.275 0.033 0.386 0.116s0.189 0.204 0.219 0.341v2.545c0.224-0.978 0.777-1.847 1.565-2.462s1.763-0.936 2.759-0.911c0.743-0.023 1.48 0.147 2.139 0.493s1.218 0.859 1.623 1.486c0.71 1.627 1 3.408 0.843 5.178v10.486c-0.016 0.148-0.088 0.284-0.2 0.381s-0.257 0.147-0.405 0.141h-3.114c-0.14-0.004-0.275-0.060-0.378-0.155s-0.169-0.226-0.184-0.367v-10.073c0-3.372-1.297-3.459-2.032-3.459-0.4 0.023-0.785 0.157-1.113 0.388s-0.587 0.548-0.746 0.918c-0.399 1.009-0.576 2.092-0.519 3.176v8.963z"></path>
</symbol>
<symbol id="icon-Frame" viewBox="0 0 105 32">
<path fill="#f90" style="fill: var(--color5, #f90)" d="M64.653 24.561c-6.055 4.468-14.833 6.845-22.392 6.845-10.595 0-20.134-3.916-27.353-10.434-0.567-0.513-0.061-1.211 0.62-0.815 7.788 4.533 17.421 7.262 27.37 7.262 6.711 0 14.087-1.393 20.876-4.271 1.024-0.435 1.883 0.674 0.88 1.415z"></path>
<path fill="#f90" style="fill: var(--color5, #f90)" d="M67.172 21.684c-0.775-0.991-5.119-0.469-7.071-0.236-0.59 0.071-0.683-0.445-0.15-0.819 3.466-2.435 9.146-1.731 9.806-0.917 0.664 0.823-0.174 6.516-3.423 9.233-0.5 0.417-0.976 0.195-0.753-0.356 0.73-1.827 2.366-5.912 1.591-6.904z"></path>
<path fill="#221f1f" style="fill: var(--color6, #221f1f)" d="M60.238 3.431v-2.366c0.001-0.361 0.272-0.6 0.6-0.599l10.602-0.001c0.338 0 0.611 0.247 0.611 0.597v2.029c-0.004 0.341-0.29 0.785-0.799 1.49l-5.491 7.841c2.038-0.047 4.195 0.259 6.047 1.3 0.417 0.233 0.529 0.581 0.562 0.922v2.525c0 0.346-0.38 0.751-0.781 0.541-3.263-1.71-7.593-1.897-11.201 0.020-0.369 0.197-0.754-0.201-0.754-0.548v-2.399c0-0.385 0.006-1.042 0.394-1.626l6.363-9.128-5.541-0.001c-0.338 0-0.611-0.242-0.612-0.595z"></path>
<path fill="#221f1f" style="fill: var(--color6, #221f1f)" d="M81.179 0.161c4.787 0 7.375 4.11 7.375 9.336 0 5.050-2.858 9.057-7.375 9.057-4.696 0-7.257-4.111-7.257-9.232 0-5.155 2.59-9.161 7.257-9.161zM81.208 3.54c-2.379 0-2.529 3.239-2.529 5.26 0 2.020-0.029 6.338 2.499 6.338 2.499 0 2.619-3.483 2.619-5.607 0-1.394-0.060-3.066-0.482-4.39-0.361-1.149-1.084-1.601-2.108-1.601z"></path>
<path fill="#221f1f" style="fill: var(--color6, #221f1f)" d="M51.787 10.299c0 1.257 0.031 2.305-0.603 3.422-0.513 0.907-1.328 1.467-2.232 1.467-1.238 0-1.961-0.943-1.961-2.339 0-2.748 2.465-3.247 4.797-3.247v0.698zM55.040 18.164c-0.212 0.191-0.603 0.197-0.762 0.074-1.101-0.852-1.849-2.148-1.849-2.148-1.771 1.804-3.025 2.346-5.317 2.346-2.716 0-4.828-1.678-4.828-5.028 0-2.618 1.418-4.4 3.441-5.271 1.749-0.77 4.194-0.908 6.064-1.118 0 0 0.157-2.021-0.392-2.758-0.425-0.571-1.146-0.838-1.81-0.838-1.196-0.005-2.352 0.646-2.582 1.898-0.065 0.357-0.329 0.659-0.608 0.628l-3.088-0.336c-0.237-0.027-0.557-0.27-0.482-0.674 0.719-3.792 4.143-4.938 7.214-4.938 1.568 0 3.62 0.418 4.858 1.607 1.568 1.467 1.418 3.42 1.418 5.551v5.024c0 1.512 0.627 2.175 1.217 2.989 0.205 0.295 0.252 0.642-0.010 0.857-0.66 0.552-2.482 2.136-2.482 2.136z"></path>
<path fill="#221f1f" style="fill: var(--color6, #221f1f)" d="M9.504 10.299c0 1.257 0.031 2.305-0.603 3.422-0.513 0.907-1.328 1.467-2.232 1.467-1.238 0-1.961-0.943-1.961-2.339 0-2.748 2.465-3.247 4.797-3.247v0.698zM12.757 18.164c-0.214 0.191-0.603 0.197-0.762 0.074-1.103-0.852-1.849-2.148-1.849-2.148-1.771 1.804-3.025 2.346-5.317 2.346-2.716 0-4.829-1.678-4.829-5.028 0-2.618 1.418-4.4 3.439-5.271 1.75-0.77 4.195-0.908 6.065-1.118 0 0 0.156-2.021-0.392-2.758-0.425-0.571-1.146-0.838-1.81-0.838-1.197-0.005-2.353 0.646-2.582 1.898-0.066 0.357-0.329 0.659-0.608 0.628l-3.088-0.336c-0.238-0.027-0.558-0.27-0.482-0.674 0.719-3.792 4.143-4.938 7.213-4.938 1.568 0 3.62 0.418 4.858 1.607 1.568 1.467 1.418 3.42 1.418 5.551v5.024c0 1.512 0.627 2.175 1.216 2.989 0.206 0.295 0.253 0.642-0.010 0.857-0.659 0.552-2.481 2.136-2.481 2.136z"></path>
<path fill="#221f1f" style="fill: var(--color6, #221f1f)" d="M22.189 8.835c0-1.917-0.090-4.564 2.227-4.564 2.288 0 1.987 2.717 1.987 4.564l0.004 8.776c0 0.317 0.256 0.575 0.579 0.594h3.222c0.343 0 0.622-0.265 0.622-0.595v-8.774c0-0.941-0.029-2.334 0.301-3.17s1.144-1.36 1.927-1.36c0.932 0 1.656 0.314 1.897 1.428 0.15 0.663 0.090 2.404 0.090 3.101l0.001 8.776c0 0.317 0.254 0.575 0.579 0.594h3.221c0.345 0 0.622-0.265 0.622-0.595l0.004-10.446c0-1.778 0.21-3.798-0.814-5.191-0.903-1.254-2.377-1.811-3.733-1.811-1.897 0-3.672 0.976-4.456 3.066-0.903-2.090-2.167-3.066-4.185-3.066-1.987 0-3.462 0.976-4.245 3.066h-0.061v-2.114c0-0.333-0.27-0.603-0.603-0.603h-3.010c-0.333 0-0.602 0.27-0.602 0.603v16.49c0 0.332 0.268 0.602 0.602 0.602h3.221c0.333 0 0.603-0.27 0.603-0.602v-8.768z"></path>
<path fill="#221f1f" style="fill: var(--color6, #221f1f)" d="M95.392 17.602c0 0.333-0.27 0.603-0.603 0.603h-3.221c-0.332 0-0.602-0.27-0.602-0.603v-16.49c0-0.332 0.27-0.603 0.602-0.603h2.978c0.35 0 0.603 0.281 0.603 0.472v2.524h0.062c0.903-2.264 2.167-3.344 4.395-3.344 1.447 0 2.861 0.523 3.764 1.951 0.845 1.323 0.845 3.553 0.845 5.155v10.416c-0.037 0.294-0.301 0.521-0.62 0.521h-3.234c-0.299-0.019-0.539-0.239-0.573-0.521l0.005-10.003c0-3.347-1.282-3.445-2.021-3.445-0.861 0-1.555 0.673-1.857 1.3-0.45 1.011-0.523 2.044-0.523 3.16v8.906z"></path>
</symbol>
</defs>
</svg>
